<svg width="56" height="56" viewBox="0 0 56 56" fill="none" xmlns="http://www.w3.org/2000/svg">
<g clip-path="url(#clip0_219_2)">
<path d="M54.3508 46.4457C56.5381 48.6331 56.5381 52.1765 54.3508 54.3639C53.2658 55.4575 51.831 56 50.3961 56C48.9612 56 47.5298 55.4532 46.4379 54.3595L27.9978 35.9291L9.5595 54.3551C8.4658 55.4575 7.0327 56 5.5996 56C4.16642 56 2.73504 55.4575 1.6405 54.3551C-0.546833 52.1678 -0.546833 48.6243 1.6405 46.437L20.0841 27.9934L1.6405 9.5586C-0.546833 7.3713 -0.546833 3.82783 1.6405 1.6405C3.82783 -0.546833 7.3713 -0.546833 9.5586 1.6405L27.9978 20.0928L46.4414 1.64925C48.6287 -0.538083 52.1722 -0.538083 54.3595 1.64925C56.5468 3.83658 56.5468 7.38005 54.3595 9.5674L35.9159 28.0109L54.3508 46.4457Z" fill="white"/>
</g>
<defs>
<clipPath id="clip0_219_2">
<rect width="56" height="56" fill="white"/>
</clipPath>
</defs>
</svg>
