<svg width="22" height="17" viewBox="0 0 22 17" fill="none" xmlns="http://www.w3.org/2000/svg">
<path d="M19.9375 0C21.0762 0 22 0.930845 22 2.07913C22 2.73319 21.6949 3.34827 21.175 3.74244L11.825 10.8115C11.3352 11.1797 10.6648 11.1797 10.175 10.8115L0.825 3.74244C0.305637 3.34827 0 2.73319 0 2.07913C0 0.930845 0.923398 0 2.0625 0H19.9375ZM9.35 11.9204C10.3297 12.6611 11.6703 12.6611 12.65 11.9204L22 4.85131V13.8609C22 15.3899 20.7668 16.6331 19.25 16.6331H2.75C1.23105 16.6331 0 15.3899 0 13.8609V4.85131L9.35 11.9204Z" fill="white"/>
</svg>
